<svg width="161" height="49" viewBox="0 0 161 49" fill="none" xmlns="http://www.w3.org/2000/svg">
<path d="M25.5625 8.3125C25.7708 8.5625 25.9792 9.27083 26.1875 10.4375C26.3958 11.6042 26.5417 12.875 26.625 14.25C26.75 15.625 26.7917 16.9167 26.75 18.125C26.75 19.3333 26.6458 20.125 26.4375 20.5C26.2708 20.75 25.8542 21.2083 25.1875 21.875C24.5208 22.5 23.75 23.2083 22.875 24C22 24.7917 21.0833 25.5833 20.125 26.375C19.2083 27.125 18.3958 27.7708 17.6875 28.3125C18.0208 28.9792 18.4375 29.8542 18.9375 30.9375C19.4375 31.9792 19.9792 33.1042 20.5625 34.3125C21.1458 35.4792 21.7083 36.6875 22.25 37.9375C22.8333 39.1875 23.3542 40.3333 23.8125 41.375C24.2708 42.375 24.6458 43.2292 24.9375 43.9375C25.2292 44.6042 25.375 45 25.375 45.125C25.375 45.3333 25.2708 45.625 25.0625 46C24.8958 46.375 24.6667 46.7292 24.375 47.0625C24.0833 47.3542 23.7708 47.6042 23.4375 47.8125C23.1042 48.0208 22.7917 48.0625 22.5 47.9375C22.3333 47.8958 22.0208 47.5625 21.5625 46.9375C21.1042 46.2708 20.5417 45.4583 19.875 44.5C19.25 43.5 18.5417 42.375 17.75 41.125C17 39.875 16.2292 38.625 15.4375 37.375C14.6458 36.0833 13.8958 34.8542 13.1875 33.6875C12.4792 32.4792 11.8542 31.4167 11.3125 30.5C11.2292 34.8333 11.125 38.1667 11 40.5C10.9167 42.8333 10.8542 44.5417 10.8125 45.625C10.7292 46.9167 10.6458 47.6458 10.5625 47.8125C10.4375 47.8125 10.1667 47.6458 9.75 47.3125C9.33333 46.9375 8.89583 46.5 8.4375 46C7.97917 45.5 7.54167 45 7.125 44.5C6.75 44 6.52083 43.625 6.4375 43.375C6.35417 42.8333 6.22917 41.2708 6.0625 38.6875C5.97917 37.5625 5.89583 36.1667 5.8125 34.5C5.72917 32.8333 5.625 30.8125 5.5 28.4375C5.41667 26.0625 5.29167 23.2708 5.125 20.0625C4.95833 16.8542 4.79167 13.1667 4.625 9C3.875 8.95833 3.27083 8.95833 2.8125 9C2.35417 9 2 9.02083 1.75 9.0625C1.5 9.10417 1.3125 9.125 1.1875 9.125C1.0625 9.08333 0.958333 8.97917 0.875 8.8125C0.708333 8.47917 0.583333 7.91667 0.5 7.125C0.416667 6.29167 0.375 5.5 0.375 4.75C0.375 3.91667 0.5 3.08333 0.75 2.25C0.958333 1.41667 1.22917 0.895833 1.5625 0.6875C1.72917 0.5625 2.3125 0.583333 3.3125 0.75C4.3125 0.875 5.41667 1.04167 6.625 1.25C7.83333 1.45833 8.97917 1.6875 10.0625 1.9375C11.1875 2.1875 11.9167 2.35417 12.25 2.4375C12.5417 2.52083 13.0208 2.66667 13.6875 2.875C14.3542 3.04167 15.125 3.29167 16 3.625C16.875 3.91667 17.7917 4.25 18.75 4.625C19.75 5 20.6875 5.39583 21.5625 5.8125C22.4375 6.22917 23.2292 6.64583 23.9375 7.0625C24.6458 7.47917 25.1875 7.89583 25.5625 8.3125ZM11.5 25.9375C11.875 25.7292 12.375 25.3333 13 24.75C13.625 24.125 14.2917 23.4375 15 22.6875C15.75 21.8958 16.5 21.0833 17.25 20.25C18 19.375 18.6667 18.5625 19.25 17.8125C19.875 17.0625 20.375 16.4167 20.75 15.875C21.125 15.3333 21.3125 14.9792 21.3125 14.8125C21.3125 14.5208 21.0417 14.1875 20.5 13.8125C20 13.3958 19.3333 12.9792 18.5 12.5625C17.6667 12.1458 16.6875 11.75 15.5625 11.375C14.4375 10.9583 13.2917 10.6042 12.125 10.3125L11.5 25.9375ZM34.25 29.9375C34.9167 29.6875 35.6667 29.4167 36.5 29.125C37.375 28.7917 38.2083 28.5 39 28.25C39.7917 27.9583 40.5 27.7083 41.125 27.5C41.75 27.2917 42.2083 27.125 42.5 27C42.4583 26.5417 42.3958 26.0208 42.3125 25.4375C42.2708 24.8125 42.2083 24.2292 42.125 23.6875C42.0417 23.1042 41.9375 22.6042 41.8125 22.1875C41.6875 21.7708 41.5625 21.5208 41.4375 21.4375C41.1042 21.3125 40.5417 21.2083 39.75 21.125C39 21 38.2083 21.0208 37.375 21.1875C36.5833 21.3542 35.8542 21.6667 35.1875 22.125C34.5208 22.5833 34.1458 23.3125 34.0625 24.3125C33.9792 24.9792 33.9583 25.8125 34 26.8125C34.0417 27.8125 34.125 28.8542 34.25 29.9375ZM47.8125 30.9375C47.7708 31.0208 47.2708 31.1875 46.3125 31.4375C45.3542 31.6875 44.2083 31.9583 42.875 32.25C41.5417 32.5 40.125 32.7708 38.625 33.0625C37.125 33.3125 35.8333 33.5208 34.75 33.6875C34.9583 35.3542 35.2083 36.8542 35.5 38.1875C35.7917 39.4792 36.0417 40.2917 36.25 40.625C36.4583 40.9167 36.7292 41.1875 37.0625 41.4375C37.3542 41.6458 37.7083 41.8542 38.125 42.0625C38.5833 42.2292 39.125 42.3542 39.75 42.4375C40.2083 42.5625 40.6458 42.3958 41.0625 41.9375C41.3958 41.5208 41.6875 40.7917 41.9375 39.75C42.2292 38.7083 42.375 37.0625 42.375 34.8125C43.6667 34.6042 44.6667 34.4792 45.375 34.4375C46.125 34.3958 46.6667 34.3958 47 34.4375C47.4167 34.4792 47.6667 34.5417 47.75 34.625C47.7917 34.75 47.7917 35.0625 47.75 35.5625C47.7083 36.0625 47.6042 36.6875 47.4375 37.4375C47.3125 38.1458 47.1458 38.9375 46.9375 39.8125C46.7708 40.6458 46.5625 41.4583 46.3125 42.25C46.0625 43 45.7917 43.6875 45.5 44.3125C45.2083 44.8958 44.8958 45.3125 44.5625 45.5625C43.5625 46.3125 42.3125 46.6875 40.8125 46.6875C39.3125 46.6458 37.8333 46.4375 36.375 46.0625C34.9167 45.6458 33.6042 45.1667 32.4375 44.625C31.2708 44.0417 30.5417 43.5625 30.25 43.1875C30.0417 42.9375 29.8542 42.3125 29.6875 41.3125C29.5208 40.2708 29.375 39.0208 29.25 37.5625C29.1667 36.1042 29.1042 34.5 29.0625 32.75C29.0208 31 29.0417 29.2917 29.125 27.625C29.25 25.9583 29.4167 24.4167 29.625 23C29.875 21.5833 30.2083 20.4375 30.625 19.5625C31.25 18.3125 32.2708 17.2917 33.6875 16.5C35.1042 15.7083 36.6042 15.1667 38.1875 14.875C39.7708 14.5833 41.2708 14.5417 42.6875 14.75C44.1458 14.9583 45.2292 15.4167 45.9375 16.125C46.3542 16.5417 46.7292 17.375 47.0625 18.625C47.3958 19.8333 47.6042 21.3125 47.6875 23.0625C47.6875 23.2292 47.7083 23.7083 47.75 24.5C47.7917 25.2917 47.8125 26.1458 47.8125 27.0625C47.8542 27.9375 47.875 28.7708 47.875 29.5625C47.875 30.3542 47.8542 30.8125 47.8125 30.9375ZM70 17.25C70.0417 17.7083 69.9583 18.4167 69.75 19.375C69.5833 20.3333 69.3125 21.2917 68.9375 22.25C68.6042 23.2083 68.1458 24.0417 67.5625 24.75C67.0208 25.4583 66.3958 25.8125 65.6875 25.8125C65.1875 25.8125 64.7708 25.4167 64.4375 24.625C64.1458 23.8333 63.9167 22.9167 63.75 21.875C63.625 20.7917 63.5208 19.7292 63.4375 18.6875C63.3542 17.6458 63.2708 16.9167 63.1875 16.5C63.0625 16.2917 62.8125 16.1042 62.4375 15.9375C62.1042 15.7292 61.7708 15.625 61.4375 15.625C61.1042 15.625 60.7292 15.8958 60.3125 16.4375C59.8958 16.9792 59.4792 17.6042 59.0625 18.3125C58.6875 19.0208 58.3542 19.7292 58.0625 20.4375C57.8125 21.1458 57.7083 21.6667 57.75 22C57.75 22.25 58.0208 22.6875 58.5625 23.3125C59.1042 23.9375 59.7708 24.6875 60.5625 25.5625C61.3958 26.3958 62.2708 27.3125 63.1875 28.3125C64.1458 29.2708 65.0208 30.25 65.8125 31.25C66.6042 32.2083 67.2708 33.125 67.8125 34C68.3958 34.875 68.7083 35.625 68.75 36.25C68.7917 37 68.5833 37.9583 68.125 39.125C67.7083 40.2917 67.1667 41.4167 66.5 42.5C65.8333 43.5833 65.125 44.5208 64.375 45.3125C63.625 46.1042 62.9583 46.5208 62.375 46.5625C61.7917 46.6042 60.9375 46.2917 59.8125 45.625C58.7292 44.9167 57.625 44.1042 56.5 43.1875C55.4167 42.2292 54.4375 41.2917 53.5625 40.375C52.7292 39.4583 52.25 38.7917 52.125 38.375C52 38 51.9167 37.5 51.875 36.875C51.875 36.25 51.8958 35.625 51.9375 35C52.0208 34.375 52.1458 33.8542 52.3125 33.4375C52.4792 32.9792 52.6875 32.75 52.9375 32.75C53.1875 32.75 53.6875 33.1875 54.4375 34.0625C55.1875 34.8958 56 35.8542 56.875 36.9375C57.75 37.9792 58.6042 38.9375 59.4375 39.8125C60.2708 40.6458 60.875 41.0625 61.25 41.0625C61.4583 41.0625 61.6875 40.9167 61.9375 40.625C62.1875 40.2917 62.4167 39.9167 62.625 39.5C62.8333 39.0833 63 38.6667 63.125 38.25C63.2917 37.7917 63.375 37.4375 63.375 37.1875C63.3333 36.8125 63 36.2708 62.375 35.5625C61.75 34.8542 60.9583 34.0625 60 33.1875C59.0417 32.3125 58 31.3958 56.875 30.4375C55.75 29.4375 54.7083 28.5 53.75 27.625C52.7917 26.75 52 25.9583 51.375 25.25C50.75 24.5417 50.4167 24 50.375 23.625C50.3333 23.25 50.4583 22.6667 50.75 21.875C51.0417 21.0417 51.4167 20.1458 51.875 19.1875C52.3333 18.1875 52.8542 17.1667 53.4375 16.125C54.0625 15.0833 54.6875 14.125 55.3125 13.25C55.9375 12.375 56.5417 11.6667 57.125 11.125C57.75 10.5417 58.2917 10.25 58.75 10.25C59.6667 10.25 60.75 10.5 62 11C63.2917 11.5 64.5208 12.125 65.6875 12.875C66.8542 13.5833 67.8542 14.3333 68.6875 15.125C69.5208 15.9167 69.9583 16.625 70 17.25ZM85.75 15.875C85.7917 16 85.7917 16.3542 85.75 16.9375C85.7083 17.4792 85.625 18.1042 85.5 18.8125C85.4167 19.4792 85.3125 20.1042 85.1875 20.6875C85.0625 21.2292 84.9583 21.5625 84.875 21.6875C84.4583 21.7292 84.0417 21.75 83.625 21.75C83.2083 21.7083 82.8125 21.6875 82.4375 21.6875H81.125C81.0833 24.4375 81.0208 27.1667 80.9375 29.875C80.8542 32.5833 80.75 35.0208 80.625 37.1875C80.5 39.3125 80.3542 41.0417 80.1875 42.375C80.0625 43.7083 79.9375 44.3958 79.8125 44.4375C79.5208 44.4792 79.1875 44.3542 78.8125 44.0625C78.4375 43.7708 78.0625 43.4167 77.6875 43C77.3542 42.5417 77.0417 42.0833 76.75 41.625C76.5 41.125 76.3542 40.6875 76.3125 40.3125C76.1042 37.7708 75.9167 35.3542 75.75 33.0625C75.5833 30.7292 75.4583 28.6667 75.375 26.875C75.2083 24.7917 75.1042 22.8542 75.0625 21.0625C74.6042 21.0208 74.1458 20.9583 73.6875 20.875C73.2708 20.7917 72.8333 20.7083 72.375 20.625C71.9583 20.5417 71.5208 20.4583 71.0625 20.375C70.9792 20.2917 70.875 20.1042 70.75 19.8125C70.625 19.4792 70.5 19.125 70.375 18.75C70.2917 18.375 70.2083 18.0208 70.125 17.6875C70.0417 17.3125 70 17.0417 70 16.875C70 16.75 70.4583 16.625 71.375 16.5C72.3333 16.375 73.5 16.2708 74.875 16.1875C74.7917 13.9792 74.7292 12.0625 74.6875 10.4375C74.6875 8.77083 74.75 7.64583 74.875 7.0625C75 6.27083 75.3333 5.52083 75.875 4.8125C76.4583 4.0625 77.0625 3.41667 77.6875 2.875C78.3542 2.33333 78.9583 1.9375 79.5 1.6875C80.0833 1.39583 80.4583 1.3125 80.625 1.4375C80.75 1.52083 80.8542 1.95833 80.9375 2.75C81.0208 3.5 81.0833 4.52083 81.125 5.8125C81.1667 7.10417 81.1875 8.625 81.1875 10.375C81.1875 12.0833 81.1875 13.8958 81.1875 15.8125C82.4375 15.7292 83.5 15.7083 84.375 15.75C85.25 15.75 85.7083 15.7917 85.75 15.875ZM92.6875 35.875C92.8125 36.2083 92.875 36.6458 92.875 37.1875C92.875 37.6875 92.8125 38.2292 92.6875 38.8125C92.5625 39.3542 92.3958 39.8958 92.1875 40.4375C92.0208 40.9375 91.8333 41.3542 91.625 41.6875C91.4583 41.9375 91.2292 42.1458 90.9375 42.3125C90.6458 42.4792 90.3333 42.6042 90 42.6875C89.6667 42.7292 89.3542 42.75 89.0625 42.75C88.7708 42.75 88.5417 42.75 88.375 42.75C88.125 42.7083 87.8542 42.5208 87.5625 42.1875C87.3125 41.8542 87.0833 41.4583 86.875 41C86.7083 40.5 86.5833 39.9792 86.5 39.4375C86.4167 38.8542 86.4375 38.3125 86.5625 37.8125C86.6875 37.3125 87.0417 36.875 87.625 36.5C88.2083 36.125 88.8333 35.8333 89.5 35.625C90.2083 35.4167 90.875 35.3333 91.5 35.375C92.125 35.375 92.5208 35.5417 92.6875 35.875Z" fill="#202675"/>
<path d="M109.062 23.5C110.021 24 110.979 24.5417 111.938 25.125C112.938 25.7083 113.854 26.2708 114.688 26.8125C115.521 27.3125 116.208 27.7917 116.75 28.25C117.333 28.6667 117.708 29 117.875 29.25C118.083 29.5833 118.188 30.1042 118.188 30.8125C118.188 31.4792 118.125 32.2292 118 33.0625C117.917 33.8542 117.771 34.6458 117.562 35.4375C117.354 36.1875 117.125 36.7917 116.875 37.25C116.583 37.8333 115.917 38.5833 114.875 39.5C113.875 40.4167 112.75 41.3333 111.5 42.25C110.25 43.1667 109.021 43.9792 107.812 44.6875C106.646 45.3958 105.75 45.8333 105.125 46C104.667 46.125 103.979 46.25 103.062 46.375C102.188 46.5 101.271 46.6042 100.312 46.6875C99.3542 46.7708 98.4792 46.8333 97.6875 46.875C96.9375 46.875 96.4792 46.8333 96.3125 46.75C95.9792 46.5417 95.6875 46.2292 95.4375 45.8125C95.2292 45.3958 95.125 44.8542 95.125 44.1875C95.2083 42.7292 95.375 41.7292 95.625 41.1875C95.7083 41.0625 95.8125 41 95.9375 41C96.0625 40.9583 96.2708 40.9375 96.5625 40.9375C96.8542 40.9375 97.2292 40.9375 97.6875 40.9375C98.1458 40.9375 98.75 40.9167 99.5 40.875C99.2917 38.75 99.1042 36.7292 98.9375 34.8125C98.7708 32.8958 98.625 31.2083 98.5 29.75C98.3333 28.0417 98.2083 26.4375 98.125 24.9375C98.0417 23.4792 97.9167 21.8542 97.75 20.0625C97.625 18.5208 97.4792 16.7292 97.3125 14.6875C97.1458 12.6458 96.9583 10.4375 96.75 8.0625C96.375 8.0625 95.9375 8.0625 95.4375 8.0625C94.9375 8.0625 94.4375 8.0625 93.9375 8.0625C93.4792 8.02083 93.0833 7.97917 92.75 7.9375C92.375 7.85417 92.1458 7.75 92.0625 7.625C91.8958 7.375 91.7708 6.91667 91.6875 6.25C91.6042 5.54167 91.5625 4.85417 91.5625 4.1875C91.5625 3.47917 91.6875 2.79167 91.9375 2.125C92.1875 1.41667 92.4792 0.958333 92.8125 0.75C92.8958 0.708333 93.2292 0.708333 93.8125 0.75C94.3958 0.75 95.1042 0.8125 95.9375 0.9375C96.7708 1.02083 97.6667 1.14583 98.625 1.3125C99.625 1.4375 100.562 1.58333 101.438 1.75C102.312 1.875 103.083 2 103.75 2.125C104.417 2.25 104.875 2.33333 105.125 2.375C105.542 2.45833 106.333 2.6875 107.5 3.0625C108.708 3.39583 110 3.79167 111.375 4.25C112.75 4.70833 114.062 5.22917 115.312 5.8125C116.562 6.35417 117.438 6.89583 117.938 7.4375C118.146 7.64583 118.333 8.22917 118.5 9.1875C118.708 10.1458 118.854 11.2083 118.938 12.375C119.062 13.5417 119.104 14.6458 119.062 15.6875C119.062 16.6875 118.958 17.3542 118.75 17.6875C118.583 17.9375 118 18.375 117 19C116 19.625 114.896 20.2708 113.688 20.9375C112.312 21.6875 110.771 22.5417 109.062 23.5ZM104.312 22.25C104.854 22 105.583 21.5 106.5 20.75C107.458 20 108.396 19.1667 109.312 18.25C110.271 17.2917 111.083 16.3333 111.75 15.375C112.458 14.375 112.812 13.5208 112.812 12.8125C112.812 12.6042 112.583 12.3333 112.125 12C111.708 11.6667 111.125 11.3333 110.375 11C109.625 10.6667 108.729 10.3333 107.688 10C106.688 9.625 105.604 9.29167 104.438 9L104.312 22.25ZM104.25 40.1875C105.417 39.9375 106.521 39.5417 107.562 39C108.604 38.4583 109.521 37.875 110.312 37.25C111.104 36.5833 111.729 35.9167 112.188 35.25C112.646 34.5833 112.875 33.9792 112.875 33.4375C112.875 32.8958 112.521 32.2917 111.812 31.625C111.146 30.9583 110.333 30.2917 109.375 29.625C108.458 28.9583 107.521 28.3542 106.562 27.8125C105.604 27.2708 104.854 26.875 104.312 26.625L104.25 40.1875ZM138.25 15.125C138.5 15.4167 138.729 15.7292 138.938 16.0625C139.146 16.3542 139.333 16.7708 139.5 17.3125C139.667 17.8125 139.792 18.4792 139.875 19.3125C140 20.1458 140.062 21.2292 140.062 22.5625C140.062 24.6875 140 26.8333 139.875 29C139.792 31.125 139.708 33 139.625 34.625C139.583 36.0833 139.542 37.4375 139.5 38.6875C139.458 39.9375 139.417 41.0417 139.375 42C139.333 42.9167 139.271 43.6458 139.188 44.1875C139.146 44.7292 139.104 45.0208 139.062 45.0625C138.896 45.1875 138.625 45.1458 138.25 44.9375C137.917 44.6875 137.542 44.375 137.125 44C136.75 43.625 136.396 43.2292 136.062 42.8125C135.729 42.3958 135.521 42.0625 135.438 41.8125C135.438 41.6042 135.375 41 135.25 40C134.25 40.5833 133.146 41 131.938 41.25C130.729 41.4583 129.521 41.5417 128.312 41.5C127.146 41.4167 126.062 41.1875 125.062 40.8125C124.062 40.4375 123.312 39.9375 122.812 39.3125C122.604 39.0625 122.417 38.6875 122.25 38.1875C122.125 37.6875 122 37.125 121.875 36.5C121.792 35.8333 121.708 35.1458 121.625 34.4375C121.542 33.6875 121.479 33 121.438 32.375C121.354 30.75 121.562 29.3542 122.062 28.1875C122.562 26.9792 123.479 26.0833 124.812 25.5C125.396 25.25 126.167 25.125 127.125 25.125C128.125 25.0833 129.104 25.125 130.062 25.25C131.062 25.3333 131.958 25.4583 132.75 25.625C133.542 25.75 134.042 25.8542 134.25 25.9375C134.083 23.8125 133.958 21.9792 133.875 20.4375C133.792 18.8542 133.625 17.8333 133.375 17.375C133.167 17.0833 132.917 16.7917 132.625 16.5C132.375 16.2917 132.042 16.0625 131.625 15.8125C131.208 15.5625 130.708 15.375 130.125 15.25C129.667 15.1667 129.25 15.3542 128.875 15.8125C128.542 16.2292 128.229 16.9792 127.938 18.0625C127.688 19.1042 127.542 20.7083 127.5 22.875C126.042 22.9167 124.917 22.9167 124.125 22.875C123.375 22.7917 122.812 22.7083 122.438 22.625C121.979 22.5417 121.708 22.4375 121.625 22.3125C121.542 22.1458 121.583 21.5417 121.75 20.5C121.917 19.4167 122.146 18.25 122.438 17C122.771 15.75 123.146 14.5625 123.562 13.4375C124.021 12.3125 124.5 11.6042 125 11.3125C126 10.7292 127.188 10.5208 128.562 10.6875C129.979 10.8542 131.354 11.2083 132.688 11.75C134.021 12.2917 135.208 12.8958 136.25 13.5625C137.292 14.2292 137.958 14.75 138.25 15.125ZM134.375 33.375C134.375 33.1667 134.396 32.8958 134.438 32.5625C134.479 32.1875 134.5 31.8125 134.5 31.4375C134.5 31.0625 134.479 30.7083 134.438 30.375C134.438 30.0417 134.396 29.7917 134.312 29.625C134.188 29.375 133.812 29.1667 133.188 29C132.604 28.8333 131.938 28.7292 131.188 28.6875C130.438 28.6042 129.729 28.5833 129.062 28.625C128.396 28.625 127.938 28.7083 127.688 28.875C127.354 29.0833 127.104 29.375 126.938 29.75C126.812 30.125 126.729 30.7083 126.688 31.5C126.688 31.875 126.708 32.2708 126.75 32.6875C126.792 33.1042 126.833 33.5208 126.875 33.9375C126.958 34.3125 127.042 34.6458 127.125 34.9375C127.25 35.2292 127.375 35.4167 127.5 35.5C127.792 35.7083 128.292 35.8958 129 36.0625C129.75 36.1875 130.5 36.2292 131.25 36.1875C132 36.1042 132.688 35.8542 133.312 35.4375C133.938 35.0208 134.292 34.3333 134.375 33.375ZM157.625 13.9375C157.958 14.1458 158.271 14.5625 158.562 15.1875C158.896 15.7708 159.188 16.4583 159.438 17.25C159.729 18 159.958 18.8125 160.125 19.6875C160.333 20.5625 160.5 21.375 160.625 22.125C160.792 22.875 160.896 23.5208 160.938 24.0625C160.979 24.5625 160.979 24.875 160.938 25C160.854 25.1667 160.604 25.3333 160.188 25.5C159.812 25.6667 159.25 25.8542 158.5 26.0625C157.75 26.2708 156.708 26.5 155.375 26.75C155.292 24.4583 155.125 22.7292 154.875 21.5625C154.625 20.3542 154.354 19.5 154.062 19C153.729 18.4167 153.375 18.125 153 18.125C152.625 18.2917 152.292 18.5 152 18.75C151.708 18.9583 151.458 19.1875 151.25 19.4375C151 19.7292 150.771 20.0417 150.562 20.375C150.479 20.5 150.396 20.7917 150.312 21.25C150.229 21.7083 150.146 22.3958 150.062 23.3125C150.062 23.6042 150.042 24.2083 150 25.125C150 26.0417 149.979 27.1042 149.938 28.3125C149.938 29.5208 149.917 30.7917 149.875 32.125C149.875 33.4583 149.854 34.7083 149.812 35.875C149.812 37 149.792 37.9583 149.75 38.75C149.75 39.5417 149.729 40 149.688 40.125C149.604 40.3333 149.396 40.625 149.062 41C148.729 41.375 148.354 41.7292 147.938 42.0625C147.521 42.3542 147.125 42.6042 146.75 42.8125C146.375 42.9792 146.125 42.9583 146 42.75C145.875 42.625 145.75 42.0833 145.625 41.125C145.5 40.1667 145.354 39 145.188 37.625C145.062 36.2083 144.917 34.6667 144.75 33C144.583 31.3333 144.438 29.7292 144.312 28.1875C144.188 26.6458 144.083 25.2708 144 24.0625C143.917 22.8125 143.854 21.9167 143.812 21.375C143.771 20.5833 143.729 19.7083 143.688 18.75C143.646 17.7917 143.604 16.8958 143.562 16.0625C143.562 15.1875 143.562 14.4375 143.562 13.8125C143.604 13.1458 143.688 12.75 143.812 12.625C143.896 12.5 144.167 12.4792 144.625 12.5625C145.125 12.6042 145.646 12.7292 146.188 12.9375C146.771 13.1042 147.312 13.3333 147.812 13.625C148.312 13.9167 148.646 14.1875 148.812 14.4375C148.938 14.6458 149.062 14.9583 149.188 15.375C149.979 14.9583 150.729 14.5833 151.438 14.25C152.188 13.875 152.896 13.6042 153.562 13.4375C154.271 13.2708 154.958 13.2292 155.625 13.3125C156.292 13.3542 156.958 13.5625 157.625 13.9375Z" fill="#E3B187"/>
</svg>
