<svg width="48" height="48" viewBox="0 0 48 48" fill="none" xmlns="http://www.w3.org/2000/svg">
<path fill-rule="evenodd" clip-rule="evenodd" d="M24 8C24.5304 8 25.0391 8.21071 25.4142 8.58579L37.4142 20.5858C38.1953 21.3668 38.1953 22.6332 37.4142 23.4142C36.6332 24.1953 35.3668 24.1953 34.5858 23.4142L26 14.8284L26 38C26 39.1046 25.1046 40 24 40C22.8954 40 22 39.1046 22 38L22 14.8284L13.4142 23.4142C12.6332 24.1953 11.3668 24.1953 10.5858 23.4142C9.80474 22.6332 9.80474 21.3668 10.5858 20.5858L22.5858 8.58579C22.9609 8.21071 23.4696 8 24 8Z" fill="#999999"/>
</svg>
