<svg width="472" height="452" viewBox="0 0 472 452" fill="none" xmlns="http://www.w3.org/2000/svg">
<g filter="url(#filter0_d)">
<path d="M42.8167 85.5003C96.0167 73.9003 182.983 107.667 219.817 126L225.817 142.5C225.317 147.834 221.717 159.5 211.317 163.5C193.717 152.7 161.984 151.667 148.317 152.5C143.15 152.667 130.017 153.5 118.817 155.5C107.617 159.1 93.4835 159 87.8168 158.5C92.6168 160.9 107.817 188.167 114.817 201.5L134.817 240.5C123.483 259 97.0168 295.2 81.8168 292C34.2168 250.8 11.9835 156.5 6.81683 114.5L5.31675 109C5.15008 108.167 4.91675 104.1 5.31675 94.5002C5.81675 82.0002 42.3167 85.0003 42.8167 85.5003Z" fill="#FADBBF" stroke="black"/>
<path d="M204.816 141C166.416 133.8 131.436 147.167 118.436 155C179.936 146.5 198.316 156.667 212.316 164L226.816 152.5C230.316 149.834 230.816 143.8 204.816 141Z" fill="#CD9570"/>
<path d="M65.8161 263C92.2161 255 108.483 216 112.817 198.5L117.816 208C117.816 215.834 117.316 232.3 117.316 233.5C117.316 234.7 113.65 263 111.816 277C102.816 283.334 85.5164 294.7 82.3164 291.5C40.8168 258.5 18.3162 171 18.8162 170.5C27.3162 200.5 65.3161 263 65.8161 263Z" fill="#CD9570"/>
<path d="M7.31681 114.5C6.81681 119.334 9.01681 130.3 21.8168 135.5C22.9835 130.167 21.7168 118.5 7.31681 114.5Z" fill="#CD9570"/>
<path d="M40.3168 128C42.6502 128.334 48.2168 130.4 51.8168 136C58.3168 143.5 76.3168 158.6 96.3168 159" stroke="black" stroke-width="0.8" stroke-linecap="round"/>
<path d="M10.3169 121C5.48352 110.834 -0.363782 89.4 14.4362 87C13.9362 87 36.8168 82.5003 59.3168 89.0003" stroke="black" stroke-width="0.8" stroke-linecap="round"/>
<path d="M38.3168 157C41.9835 182.667 55.4168 240.3 79.8168 265.5" stroke="black" stroke-width="0.8" stroke-linecap="round"/>
<path d="M11.8168 119.5C14.1502 121.167 19.3168 126.4 21.3168 134" stroke="black" stroke-width="0.8" stroke-linecap="round"/>
<path d="M58.8172 309.5C56.0172 301.1 60.9839 281 63.8172 272C70.8173 283.5 80.8171 291.5 81.3171 291.5C89.3171 281.9 102.317 256.833 107.817 245.5C108.317 244.333 110.017 239.4 112.817 229C114.417 218.6 113.484 205.667 112.817 200.5C110.317 195.667 105.417 186 105.817 186C118.617 186.4 143.817 221.833 154.817 239.5C161.317 238.5 163.817 245.5 164.317 245.5C184.317 240 193.317 269.5 193.817 269.5C202.217 268.7 207.317 274.5 208.817 277.5C220.017 275.9 226.484 281.5 228.317 284.5C231.917 278.5 239.484 276.333 242.817 276L243.817 253L253.317 267L271.317 287L281.817 294L299.817 289.5L322.817 278.5L336.817 268.5L344.826 262.271C345.254 261.887 345.592 261.635 345.817 261.5L344.826 262.271C343.672 263.304 341.86 265.29 339.817 268.5C330.317 281 322.317 307.5 322.817 307.5C328.417 306.7 333.484 307.166 335.317 307.5C335.65 308 336.717 311.4 338.317 321C343.117 321.4 350.984 328.833 354.317 332.5L363.317 341C365.484 342.166 370.817 344.7 374.817 345.5C383.617 346.3 390.484 354.166 392.817 358C410.817 367 439.817 392.5 440.317 392.5C450.717 410.5 453.65 433.666 453.817 443H102.817C102.317 440.5 103.817 422 104.317 422C97.8171 401 99.8171 366 99.8171 365.5C88.2171 355.5 74.6504 332 69.3171 321.5C65.8171 317.333 58.8172 309.1 58.8172 309.5Z" fill="#3C3E4B" stroke="black"/>
<path d="M59.4362 308.5C55.8362 303.7 61.5916 280.167 63.9249 272L67.4362 277.5L71.9362 282.5L80.9362 291.5C69.7362 305.5 61.1029 310.667 59.4362 308.5Z" fill="#121117"/>
<path d="M105.436 186.5C107.436 185 113.539 184.67 112.903 201.666L105.436 186.5Z" fill="#121117"/>
<path d="M216.817 228.5C226.417 225.7 225.15 215.667 223.317 211L243.317 217.5C244.15 219.333 243.617 223.9 234.817 227.5C223.817 232 216.317 229 216.817 228.5Z" fill="#AB2D17" stroke="black"/>
<path d="M338.817 443C338.017 438.2 324.484 405.667 317.817 390C317.15 390 315.417 390.5 313.817 392.5C316.217 396.1 327.15 427.667 332.317 443H338.817Z" fill="white"/>
<path d="M200.317 360L181.817 375L182.317 381L202.317 363.5H200.817L200.317 360Z" fill="white"/>
<path d="M231.317 218C209.317 209.6 212.817 183.5 217.317 171.5V158L246.317 126.5L278.317 108.5C294.484 107.833 327.317 106.3 329.317 105.5C331.317 104.7 361.484 114.166 376.317 119L393.817 160.5L381.317 204C380.517 209.2 375.65 217.5 373.317 221C380.817 218 393.317 202 393.817 202C406.217 198 397.984 215 392.317 224C376.717 247.2 361.15 251.666 355.317 251C351.984 254.5 344.417 262.3 340.817 265.5C336.017 270.7 323.484 301.333 317.817 316C317.484 316.333 316.817 317.4 316.817 319C316.817 320.6 324.817 329.666 328.817 334L300.317 369.5L254.817 388.5C245.984 365.833 227.917 317.3 226.317 304.5C224.717 291.7 229.984 288.5 232.817 288.5L243.317 289V251.5C233.317 241 231.317 218.5 231.317 218Z" fill="#F7DCC1" stroke="black"/>
<path d="M226.317 285.5C231.517 279.1 239.817 276.5 243.317 276V289.5C240.317 289 234.017 288.3 232.817 289.5C231.617 290.7 232.317 297.333 232.817 300.5C232.317 335 259.817 377 260.317 377C286.317 369 312.817 340 322.817 326.5L316.317 320C315.817 317 321.317 307.5 321.817 307C329.817 305.8 334.484 307.5 335.817 308.5C336.15 310.167 337.017 315.4 337.817 323C340.217 327.4 340.817 333.5 340.817 336C338.417 340 334.15 356 332.317 363.5C330.717 379.1 313.983 394.333 305.817 400C301.817 400 299.483 393.667 298.817 390.5C299.617 384.5 296.15 375 294.317 371C282.817 381 255.317 391 255.317 390.5C245.717 381.7 238.65 360.167 236.317 350.5C220.817 359.5 199.317 363.5 199.817 363.5C200.817 347.5 216.317 298 217.317 293.5C218.317 289 225.817 285.5 226.317 285.5Z" fill="#F1782A" stroke="black"/>
<path d="M235.317 351C237.65 349 243.317 346.8 247.317 354" stroke="black" stroke-linecap="round"/>
<path d="M281.817 366.5C285.15 364.833 291.917 363.1 294.317 371.5" stroke="black" stroke-linecap="round"/>
<path d="M295.817 373C311.817 359 329.665 332.713 336.817 316.5L339.317 328.5C332.705 344.383 309.761 377.687 299.317 388.5L298.317 380.5L295.817 373Z" fill="white"/>
<path d="M229.317 283C224.317 300 226.817 339.5 228.317 354L221.317 357L212.795 359.654L212.817 360C212.809 359.886 212.802 359.771 212.795 359.654C211.89 344.392 216.657 304.775 221.817 288.5L223.817 287L226.317 286L229.317 283Z" fill="white"/>
<path d="M221.817 357C220.317 342.5 221.817 302.5 226.817 285.5L224.817 286.5C219.617 302.9 217.817 343 218.817 358L221.817 357Z" fill="black"/>
<path d="M297.317 379C309.817 365.5 330.665 337.212 337.817 321L338.817 326C330.817 341 308.761 371.687 298.317 382.5L297.317 379Z" fill="black"/>
<path d="M233.436 288.5C234.636 284.1 239.984 281 242.817 280V288.895L237.936 288.5H233.436Z" fill="#983C00"/>
<path d="M327.817 317.357C328.817 311 319.317 311 319.317 312.5C318.117 313.7 316.65 317.667 316.317 319.5L322.817 326.357C323.15 326.191 324.617 324.157 327.817 317.357Z" fill="#983C00"/>
<path d="M274.317 308.5C261.917 303.3 248.484 271 243.317 255.5L267.317 283L280.817 294L289.317 292.5L322.317 279C325.317 277.167 331.717 273.4 333.317 273C291.317 315 274.317 308 274.317 308.5Z" fill="#CC936D"/>
<path d="M149.817 246C154.15 261.333 162.417 295.6 160.817 310M166.817 252C170.65 261 177.917 282.1 176.317 294.5M195.817 276.5C194.484 292.5 189.917 326.3 182.317 333.5M179.817 357C180.65 378.5 186.117 425.8 201.317 443M377.817 348C383.65 350.833 394.017 362.1 388.817 384.5M392.817 412C390.15 420.833 383.417 439.4 377.817 443" stroke="black" stroke-linecap="round"/>
<path d="M343.817 182C341.817 184.4 331.317 185.333 326.317 185.5C330.317 181.1 338.65 181 342.317 181.5C342.817 181.5 343.817 181.6 343.817 182Z" fill="#CB8D5E" fill-opacity="0.6"/>
<path d="M280.257 177.92C277.532 178.193 272.828 173.011 270.817 170.386C275.94 170.065 279.145 174.542 280.107 176.82C280.294 177.092 280.587 177.693 280.257 177.92Z" fill="#CB8D5E" fill-opacity="0.6"/>
<path d="M249.817 266.5C249.817 266.9 249.484 269.333 249.317 270.5" stroke="black" stroke-width="0.6" stroke-linecap="round"/>
<path d="M252.317 269C252.317 269.4 252.484 273.833 252.317 275" stroke="black" stroke-width="0.6" stroke-linecap="round"/>
<path d="M254.817 274C254.817 274.4 254.984 278.833 254.817 280" stroke="black" stroke-width="0.6" stroke-linecap="round"/>
<path d="M257.817 277C257.817 277.533 257.817 283.444 257.817 285" stroke="black" stroke-width="0.6" stroke-linecap="round"/>
<path d="M260.817 282C260.817 282.533 260.817 288.444 260.817 290" stroke="black" stroke-width="0.6" stroke-linecap="round"/>
<path d="M265.817 288C265.817 288.533 265.817 294.444 265.817 296" stroke="black" stroke-width="0.6" stroke-linecap="round"/>
<path d="M268.817 292C268.817 292.533 268.817 298.444 268.817 300" stroke="black" stroke-width="0.6" stroke-linecap="round"/>
<path d="M271.817 295C271.817 295.533 271.817 301.444 271.817 303" stroke="black" stroke-width="0.6" stroke-linecap="round"/>
<path d="M277.356 298C277.254 298.523 276.116 304.324 275.817 305.851" stroke="black" stroke-width="0.6" stroke-linecap="round"/>
<path d="M279.356 300C279.254 300.523 278.116 306.324 277.817 307.851" stroke="black" stroke-width="0.6" stroke-linecap="round"/>
<path d="M283.356 299C283.254 299.523 282.116 305.324 281.817 306.851" stroke="black" stroke-width="0.6" stroke-linecap="round"/>
<path d="M289.356 297C289.254 297.523 288.116 303.324 287.817 304.851" stroke="black" stroke-width="0.6" stroke-linecap="round"/>
<path d="M293.356 296C293.254 296.523 292.116 302.324 291.817 303.851" stroke="black" stroke-width="0.6" stroke-linecap="round"/>
<path d="M298.356 293C298.254 293.523 297.116 299.324 296.817 300.851" stroke="black" stroke-width="0.6" stroke-linecap="round"/>
<path d="M304.356 292C304.254 292.333 303.116 296.028 302.817 297" stroke="black" stroke-width="0.6" stroke-linecap="round"/>
<path d="M308.356 290C308.254 290.333 307.116 294.028 306.817 295" stroke="black" stroke-width="0.6" stroke-linecap="round"/>
<path d="M312.817 288C312.75 288.267 312.012 291.222 311.817 292" stroke="black" stroke-width="0.6" stroke-linecap="round"/>
<path d="M316.817 285C316.817 285.2 316.817 287.417 316.817 288" stroke="black" stroke-width="0.6" stroke-linecap="round"/>
<path d="M321.817 283C321.817 283.2 321.817 285.417 321.817 286" stroke="black" stroke-width="0.6" stroke-linecap="round"/>
<path d="M325.817 281C325.817 281.133 325.817 282.611 325.817 283" stroke="black" stroke-width="0.6" stroke-linecap="round"/>
<path d="M328.817 278C328.817 278.133 328.817 279.611 328.817 280" stroke="black" stroke-width="0.6" stroke-linecap="round"/>
<path d="M196.317 275.5C197.817 293.833 197.217 331 182.817 333C182.317 333 192.817 321 196.317 275.5Z" fill="black" fill-opacity="0.3"/>
<path d="M163.317 255C164.517 253 164.484 247.833 164.317 245.5C161.817 239 153.817 239.5 154.317 239.5C156.717 241.5 161.317 250.667 163.317 255Z" fill="black" fill-opacity="0.3"/>
<path d="M150.317 245.5C157.984 257.5 170.917 287 161.317 309C161.936 295.5 157.436 269 150.317 245.5Z" fill="black" fill-opacity="0.3"/>
<path d="M136.317 347L127.317 377L134.817 364L141.317 356L149.317 345L168.817 316.5L174.317 305L136.317 347Z" fill="black" fill-opacity="0.3"/>
<path d="M105.817 328C109.484 336 116.117 357.1 113.317 377.5" stroke="black" stroke-linecap="round"/>
<path d="M282.317 334C300.317 322.8 313.15 298.333 317.317 287.5L312.817 292C311.317 293.833 306.217 300 297.817 310C289.417 320 284.65 327.833 283.317 330.5C283.15 330.667 282.717 331.6 282.317 334Z" fill="#D2976B"/>
<path d="M286.317 324.5C284.984 326.833 282.317 332 282.317 334" stroke="black" stroke-width="0.4" stroke-linecap="round"/>
<path d="M292.817 316.5C298.984 308.5 312.317 291.7 316.317 288.5" stroke="black" stroke-width="0.4" stroke-linecap="round"/>
<path d="M253.817 295C254.484 303.333 254.817 320.9 250.817 324.5" stroke="black" stroke-width="0.4" stroke-linecap="round"/>
<path d="M237.317 283.5C235.65 284.5 232.117 287.7 232.117 292.5" stroke="black" stroke-linecap="round"/>
<path d="M320.817 329.5C322.484 327.333 326.217 322 327.817 318" stroke="black" stroke-linecap="round"/>
<path d="M231.317 201.5C229.317 218.667 235.917 260 278.317 288C278.317 288.496 321.194 293.921 361.443 243.112C361.978 242.393 362.271 242 362.317 242C362.026 242.374 361.735 242.744 361.443 243.112C356.097 250.307 326.634 290.182 279.817 297C278.317 296.5 224.317 252 231.317 201.5Z" fill="#0C0807"/>
<path d="M177.317 300C172.817 309.667 159.317 334.3 141.317 355.5C137.317 360.5 128.917 372 127.317 378" stroke="black" stroke-linecap="round"/>
<path d="M324.817 255C307.617 242.6 274.317 239.167 259.817 239C259.817 242.2 260.484 245.333 260.817 246.5C266.317 256 289.317 267 293.317 269C297.317 271 303.817 270.5 304.317 270.5C310.317 268.9 320.484 259.5 324.817 255Z" fill="black"/>
<path d="M267.817 245.5C267.017 244.7 267.484 241.5 267.817 240C284.617 240.4 308.817 248.5 318.817 252.5C318.017 264.5 306.817 269.167 301.317 270C285.717 267.2 271.317 256.5 265.817 250C265.417 248.4 266.984 246.333 267.817 245.5Z" fill="white"/>
<path d="M267.817 245.5C267.017 244.7 267.484 241.5 267.817 240C284.617 240.4 308.817 248.5 318.817 252.5C318.017 264.5 306.817 269.167 301.317 270C285.717 267.2 271.317 256.5 265.817 250C265.417 248.4 266.984 246.333 267.817 245.5ZM267.817 245.5C269.984 247.333 275.517 251.2 280.317 252" stroke="black" stroke-linecap="round"/>
<path d="M317.817 256.5C315.15 257 308.217 257.7 301.817 256.5" stroke="black" stroke-linecap="round"/>
<path d="M212.317 443C204.317 439.4 189.103 404 182.936 387C182.936 407.8 192.936 432.5 201.817 443H212.317Z" fill="black" fill-opacity="0.3"/>
<path d="M275.272 141.496C265.28 140.715 253.143 145.504 248.317 148L247.317 134.5L287.317 109.5L318.817 112L356.817 136L386.817 160L383.317 209L389.317 211C390.15 209.833 392.617 207.3 395.817 206.5C399.017 205.7 399.15 212.167 398.817 215.5C396.484 217.833 391.517 222.4 390.317 222C389.117 225.2 383.484 231 380.817 233.5C378.484 234.833 373.217 237.5 370.817 237.5C368.417 237.5 366.15 236.833 365.317 236.5C369.817 227.5 378.917 209.4 379.317 209C368.517 202.6 364.484 186.333 363.817 179C344.317 171.5 343.817 156 343.817 161C343.817 165 347.15 172 348.817 175C333.617 166.2 329.484 146 329.317 137L299.817 166C298.65 169.333 296.217 177.7 295.817 184.5C287.817 177.3 289.15 153.5 290.817 142.5L289.817 133L282.317 141.5C282.15 149.5 281.217 164.4 278.817 160C275.918 154.686 274.887 141.903 275.272 141.496Z" fill="#CB8D5E" fill-opacity="0.6"/>
<path d="M227.436 207C212.936 203.5 215.984 182.167 218.317 171.5L220.817 158.5C229.15 155.167 244.917 150.5 241.317 158.5C236.817 168.5 237.817 182 237.317 181.5C235.317 179.5 233.484 175.667 232.817 174C232.65 174.333 232.017 177.7 230.817 188.5C228.817 201.5 227.936 207 227.436 207Z" fill="#CB8D5E" fill-opacity="0.6"/>
<path d="M276.701 155.169C270.579 152.108 263.838 148.577 260.3 146.294C264.514 146.326 270.545 147.058 276.047 149.168C281.808 151.376 286.935 155.072 288.853 161C288.691 160.931 288.498 160.845 288.274 160.745C287.587 160.436 286.624 159.99 285.461 159.44C283.135 158.339 280.012 156.824 276.701 155.169Z" fill="#701F1E" stroke="black" stroke-width="0.6"/>
<path d="M330.546 160.734L330.569 160.706L330.585 160.674C331.012 159.824 333.07 157.962 337.792 158.353L337.801 158.354L337.809 158.354L353.071 158.775C348.82 159.616 343.334 160.792 338.281 162.062C335.18 162.842 332.238 163.658 329.843 164.454C328.406 164.932 327.15 165.408 326.173 165.87L330.546 160.734Z" fill="#701F1E" stroke="black" stroke-width="0.6"/>
<path d="M213.817 190C209.817 190.167 203.317 190.1 201.317 188.5C200.817 188.5 211.817 183.5 213.817 174.5C209.15 174.333 199.417 173.2 197.817 170C197.317 169.5 211.817 167.5 213.817 149C213.817 148.5 197.317 144.5 193.817 136.5C193.317 136.5 212.317 135.5 217.817 121C217.817 120.5 198.817 107.5 189.817 94C188.817 93.5 207.817 97.5 222.317 87C221.817 87 210.826 84.0024 204.325 77.0085C204.307 77.0029 204.304 77 204.317 77C204.32 77.0028 204.322 77.0057 204.325 77.0085C205.005 77.2215 227.559 81.3089 236.817 74C236.317 74 230.317 50 239.817 42C239.817 42.5 236.817 27.5 240.817 22.5C240.817 22 254.817 54 283.317 45C283.317 44.5021 284.805 35.0796 289.261 31.5444C289.278 31.5152 289.297 31.5 289.317 31.5C289.298 31.5147 289.279 31.5295 289.261 31.5444C288.861 32.2265 289.399 40.5616 291.317 42C289.484 36 288.217 22.3 297.817 15.5C297.151 24.1624 299.415 43.2812 313.796 50.4894C313.109 49.899 304.607 24.8522 328.817 12.5C326.317 15.8333 321.417 23.4 321.817 27C321.817 27.5 324.817 10 342.317 2C339.984 6.33333 335.617 16.3 336.817 21.5C336.317 22.5 342.817 39 361.317 42C365.984 44 376.517 50.3 381.317 59.5L373.817 45C379.15 48.6667 390.217 58.4 391.817 68C392.316 68 391.82 63.5225 398.268 61.5151C398.285 61.5051 398.301 61.5 398.317 61.5C398.301 61.505 398.285 61.51 398.268 61.5151C397.858 61.7588 397.137 64.8987 396.817 66.5C398.984 61.6667 402.317 49.6 398.317 40C398.317 39.5 412.317 58 407.817 82.5C407.817 82.9965 416.198 78.5628 418.764 68.2197C418.762 68.0753 418.777 68 418.817 68C418.8 68.0735 418.782 68.1468 418.764 68.2197C418.779 69.8607 420.806 80.4303 409.317 91C408.818 91 431.27 95.9895 436.8 109.956C436.836 109.985 436.842 110 436.817 110C436.811 109.985 436.806 109.971 436.8 109.956C436.122 109.415 425.039 104.101 419.817 106C426.15 110.167 439.217 122.3 440.817 137.5C441.316 137.5 457.255 150.947 467.259 146.029C467.28 146.01 467.3 146 467.317 146C467.298 146.01 467.278 146.019 467.259 146.029C466.67 146.551 464.426 153.981 452.695 157.877C453.761 157.854 457.057 158.142 462.317 154.5C459.817 160.333 451.817 172.5 439.817 174.5C441.984 175.333 446.917 177.9 449.317 181.5C443.15 180.667 429.517 181.9 424.317 193.5C424.317 195.833 427.217 201.6 438.817 206C436.984 208.167 429.217 210.7 412.817 203.5C415.984 206.167 424.017 211.2 430.817 210C428.817 212 421.917 215.9 410.317 215.5C407.65 218.333 403.517 226.3 408.317 235.5C404.65 234.833 396.917 232.4 395.317 228C391.317 231.5 385.117 240.7 392.317 249.5C391.817 249.5 379.817 257 368.817 248.5C368.317 248 360.817 257 366.317 264.5C362.65 263.667 354.817 260.6 352.817 255C353.217 254.2 349.77 260 347.436 260C347.77 264.167 346.517 267.5 343.317 271.5C342.302 270.484 342.817 267.5 339.936 266C345.436 261 351.936 254.5 355.436 251C360.436 250 367.019 250.316 375.1 243C375.1 243 397.936 223.331 399.936 206C400.436 203 396.936 199 392.436 203.5C382.436 216 377.436 218.5 372.936 221.5C378.436 213 380.41 205.105 380.436 204.5C367.53 192.09 367.955 182.658 368.426 172.227L368.436 172C351.436 172.5 346.341 160.708 345.936 160C345.936 160 345.936 165 349.436 171.5C335.936 158.5 334.287 139.78 333.436 137.5C329.936 137.5 320.347 146.594 320.936 147.5C317.302 152.804 315.391 156.235 312.436 164L313.436 155C311.007 156.398 309.869 157.312 307.936 159C305.061 161.448 303.78 163.119 301.936 166.5C300.413 172.951 300.335 176.562 300.936 183C298.192 180.273 296.998 178.518 295.436 175C293.41 170.214 292.694 167.469 291.936 162.5C290.318 157.68 289.807 154.82 289.436 149.5C290.082 143.954 290.657 141.651 291.936 138.5C289.751 139.846 288.677 140.996 286.936 143.5C285.196 146.752 284.345 148.598 283.436 152C281.749 157.854 281.316 161.139 280.936 167C278.755 160.636 278.074 157.025 277.936 150.5C278.347 146.654 278.726 144.473 279.936 140.5C281.452 136.527 282.325 134.427 283.936 131C277.813 135.015 271.85 136.549 258.436 138.5C245.023 140.451 249.436 148.5 249.436 148.5L242.936 160.5L238.436 174L236.436 164L239.936 150.5L231.936 171V191C231.936 191 227.793 186 225.436 175C223.079 164 224.436 156.5 224.436 156.5C224.436 156.5 222.368 158.784 221.436 160.5C220.169 162.834 219.436 167 219.436 167L213.817 190Z" fill="url(#paint0_linear)"/>
<path d="M392.436 203.5C396.936 199 400.436 203 399.936 206C397.936 223.331 375.1 243 375.1 243C367.019 250.316 360.436 250 355.436 251C351.936 254.5 345.436 261 339.936 266C342.817 267.5 342.302 270.484 343.317 271.5C346.517 267.5 347.77 264.167 347.436 260C349.77 260 353.217 254.2 352.817 255C354.817 260.6 362.65 263.667 366.317 264.5C360.817 257 368.317 248 368.817 248.5C379.817 257 391.817 249.5 392.317 249.5C385.117 240.7 391.317 231.5 395.317 228C396.917 232.4 404.65 234.833 408.317 235.5C403.517 226.3 407.65 218.333 410.317 215.5C421.917 215.9 428.817 212 430.817 210C424.017 211.2 415.984 206.167 412.817 203.5C429.217 210.7 436.984 208.167 438.817 206C427.217 201.6 424.317 195.833 424.317 193.5C429.517 181.9 443.15 180.667 449.317 181.5C446.917 177.9 441.984 175.333 439.817 174.5C451.817 172.5 459.817 160.333 462.317 154.5C455.817 159 452.317 157.5 452.317 158C464.817 154 466.817 146 467.317 146C457.317 151 441.317 137.5 440.817 137.5C439.217 122.3 426.15 110.167 419.817 106C425.317 104 437.317 110 436.817 110C431.317 96 408.817 91 409.317 91C421.817 79.5 418.317 68 418.817 68C416.317 78.5 407.817 83 407.817 82.5C412.317 58 398.317 39.5 398.317 40C402.317 49.6 398.984 61.6667 396.817 66.5C397.15 64.8333 397.917 61.5 398.317 61.5C391.817 63.5 392.317 68 391.817 68C390.217 58.4 379.15 48.6667 373.817 45L381.317 59.5C376.517 50.3 365.984 44 361.317 42C342.817 39 336.317 22.5 336.817 21.5C335.617 16.3 339.984 6.33333 342.317 2C324.817 10 321.817 27.5 321.817 27C321.417 23.4 326.317 15.8333 328.817 12.5C304.317 25 313.317 50.5 313.817 50.5C299.417 43.3 297.15 24.1667 297.817 15.5C288.217 22.3 289.484 36 291.317 42C289.317 40.5 288.817 31.5 289.317 31.5C284.817 35 283.317 44.5 283.317 45C254.817 54 240.817 22 240.817 22.5C236.817 27.5 239.817 42.5 239.817 42C230.317 50 236.317 74 236.817 74C227.317 81.5 203.817 77 204.317 77C210.817 84 221.817 87 222.317 87C207.817 97.5 188.817 93.5 189.817 94C198.817 107.5 217.817 120.5 217.817 121C212.317 135.5 193.317 136.5 193.817 136.5C197.317 144.5 213.817 148.5 213.817 149C211.817 167.5 197.317 169.5 197.817 170C199.417 173.2 209.15 174.333 213.817 174.5C211.817 183.5 200.817 188.5 201.317 188.5C203.317 190.1 209.817 190.167 213.817 190L219.436 167C219.436 167 220.169 162.834 221.436 160.5C222.368 158.784 224.436 156.5 224.436 156.5C224.436 156.5 223.079 164 225.436 175C227.793 186 231.936 191 231.936 191V171L239.936 150.5L236.436 164L238.436 174L242.936 160.5L249.436 148.5C249.436 148.5 245.023 140.451 258.436 138.5C271.85 136.549 277.813 135.015 283.936 131C282.325 134.427 281.452 136.527 279.936 140.5C278.726 144.473 278.347 146.654 277.936 150.5C278.074 157.025 278.755 160.636 280.936 167C281.316 161.139 281.749 157.854 283.436 152C284.345 148.598 285.196 146.752 286.936 143.5C288.677 140.996 289.751 139.846 291.936 138.5C290.657 141.651 290.082 143.954 289.436 149.5C289.807 154.82 290.318 157.68 291.936 162.5C292.694 167.469 293.41 170.214 295.436 175C296.998 178.518 298.192 180.273 300.936 183C300.335 176.562 300.413 172.951 301.936 166.5C303.78 163.119 305.061 161.448 307.936 159C309.869 157.312 311.007 156.398 313.436 155L312.436 164C315.391 156.235 317.302 152.804 320.936 147.5C320.347 146.594 329.936 137.5 333.436 137.5C334.287 139.78 335.936 158.5 349.436 171.5C345.936 165 345.936 160 345.936 160C346.341 160.708 351.436 172.5 368.436 172C367.962 182.522 367.436 192 380.436 204.5C380.41 205.105 378.436 213 372.936 221.5M392.436 203.5C382.436 216 377.436 218.5 372.936 221.5M392.436 203.5L382.436 214.402L372.936 221.5" stroke="black"/>
<g filter="url(#filter1_f)">
<path d="M204.936 77.5C212.415 78.9958 225.86 80.4916 236.843 74.5504C236.833 74.4505 236.861 74.4262 236.936 74.5C236.905 74.5169 236.874 74.5337 236.843 74.5504C236.903 75.127 238.226 78.2215 238.936 79.5C232.77 82.5 218.136 84.7 204.936 77.5Z" fill="#FFD7B7" fill-opacity="0.8"/>
<path d="M190.947 94.5C207.936 96.5 218.936 90.3333 222.936 87C224.536 87 230.436 87.3333 234.436 86.5C205.936 106.5 190.447 94.5 190.947 94.5Z" fill="#FFD7B7" fill-opacity="0.8"/>
<path d="M210.436 103C220.936 106.796 237.936 103.5 243.436 97.5C239.936 103.5 225.436 114 210.436 103Z" fill="#FFD7B7" fill-opacity="0.8"/>
<path d="M283.436 99C276.436 110 261.447 112.833 253.447 111C273.447 118.6 286.603 107.5 290.436 101.5L283.436 99Z" fill="#FFD7B7" fill-opacity="0.8"/>
<path d="M250.447 132.5C263.936 133.5 271.936 126 276.936 121C282.936 119.5 282.447 123 282.447 123.5C266.447 138 249.947 132.5 250.447 132.5Z" fill="#FFD7B7" fill-opacity="0.8"/>
<path d="M194.947 137C211.436 134 217.936 124.833 217.936 120.5C219.936 118.9 223.78 122.833 224.947 124.5C213.447 143 194.447 137 194.947 137Z" fill="#FFD7B7" fill-opacity="0.8"/>
<path d="M228.947 136C228.264 136.871 227.494 137.856 226.687 138.953C224.61 143.089 223.07 150.132 222.447 154C225.947 151.667 232.947 147.1 232.947 147.5C226.147 156.7 229.447 180.333 231.947 191C218.947 164.5 224.947 156 223.947 156.5C219.947 161.7 218.947 168.333 218.947 171C215.503 156.402 221.783 145.614 226.687 138.953C227.384 137.564 228.142 136.503 228.947 136Z" fill="#FFD7B7" fill-opacity="0.8"/>
<path d="M244.947 141.5C244.704 141.851 244.448 142.247 244.182 142.684C241.955 147.588 239.492 164.691 238.447 173.5C235.85 160.518 240.792 148.253 244.182 142.684C244.441 142.114 244.697 141.708 244.947 141.5Z" fill="#FFD7B7" fill-opacity="0.8"/>
<path d="M280.947 167C272.936 145 286.936 125.833 294.436 118.5C280.946 132.989 280.947 166.451 280.947 166.999V167Z" fill="#FFD7B7" fill-opacity="0.8"/>
<path d="M308.936 118C302.27 129.167 291.436 166 300.947 183C290.436 173.5 285.436 135 308.936 118Z" fill="#FFD7B7" fill-opacity="0.8"/>
<path d="M378.447 172.5C364.847 168.9 357.113 157.667 354.947 152.5C354.113 155.5 352.547 161.5 352.947 161.5C362.147 169.5 373.78 172.167 378.447 172.5Z" fill="#FFD7B7" fill-opacity="0.8"/>
<path d="M435.447 160C415.847 162.8 409.936 157 402.436 146C396.936 147 401.447 157 401.947 157.5C416.947 171 434.947 160 435.447 160Z" fill="#FFD7B7" fill-opacity="0.8"/>
<path d="M417.947 201.5C405.547 198.7 399.113 184.667 397.447 178C389.947 178 392.947 189 392.947 189.5C398.947 198.7 412.113 201.333 417.947 201.5Z" fill="#FFD7B7" fill-opacity="0.8"/>
<path d="M375.947 179C376.893 186.094 380.881 201.868 389.435 211.002C389.969 211.54 390.476 212.041 390.947 212.5C390.427 212.024 389.924 211.524 389.435 211.002C382.783 204.302 371.817 191.924 371.447 186C370.947 186 371.447 172 375.947 179Z" fill="#FFD7B7" fill-opacity="0.8"/>
<path d="M364.936 104.5C354.436 106 350.113 100.5 348.447 98.5C343.247 81.7 351.103 77.1667 355.436 77.5C351.936 96.5 363.926 103 364.936 104.5Z" fill="#FFD7B7" fill-opacity="0.8"/>
<path d="M263.936 68.5C269.77 74.6667 288.236 85.3 309.436 76.5C299.436 83.8333 275.136 92.1 263.936 68.5Z" fill="#FFD7B7" fill-opacity="0.8"/>
</g>
<g filter="url(#filter2_f)">
<path d="M240.436 23.5C247.436 32 256.436 52.5 283.936 45C270.77 50.8333 247.936 52.5 240.436 23.5Z" fill="#FFD7B7" fill-opacity="0.8"/>
<path d="M297.436 16C297.436 25 297.436 41.5 313.436 50.5C302.603 49.5 289.436 37 297.436 16Z" fill="#FFD7B7" fill-opacity="0.8"/>
<path d="M350.936 47C349.936 46.5 316.936 35 340.936 3C338.593 7.76274 336.235 14.2413 336.263 22C337.987 27.3333 344.736 38.7 357.936 41.5C364.314 43.7779 374.927 49.1276 381.603 59.7429C379.485 55.7615 376.023 49.0636 373.936 45C378.936 50.5 387.436 54.4 391.436 68C391.036 67.6 388.436 66.1667 386.936 65.5H385.436H380.936C376.603 58.6667 363.836 44.3 347.436 41.5C344.583 39.9631 339.632 35.2449 337.249 30.0598C338.937 36.6351 342.994 42.7952 350.936 47Z" fill="#FFD7B7" fill-opacity="0.8"/>
<path d="M398.436 41.5C402.603 45.6667 410.936 64 407.436 82.5C406.936 72.6667 403.636 50.7 398.436 41.5Z" fill="#FFD7B7" fill-opacity="0.8"/>
<path d="M436.436 109.5C430.436 98 410.603 90.3333 407.436 92C403.936 93.5 398.836 96.2 406.436 95C414.036 93.8 429.936 104.333 436.436 109.5Z" fill="#FFD7B7" fill-opacity="0.8"/>
<path d="M440.436 137.5C436.936 116.5 419.436 106.5 418.936 106C417.603 107.167 414.036 109.5 418.436 111.5C423.936 114 439.936 137.5 440.436 137.5Z" fill="#FFD7B7" fill-opacity="0.8"/>
<path d="M466.436 147C454.936 148.5 444.27 141 440.936 138C440.936 141.2 451.436 148.333 456.936 151L456.91 151.053C456.567 151.742 455.834 153.212 451.936 157.5C459.536 155.9 464.603 150.167 466.436 147Z" fill="#FFD7B7" fill-opacity="0.8"/>
<path d="M437.936 206C430.936 204.5 421.436 195 421.436 189C421.436 193.333 419.336 197.2 420.936 200C422.536 202.8 432.936 206 437.936 206Z" fill="#FFD7B7" fill-opacity="0.8"/>
<path d="M447.436 180.5C444.236 178.9 436.603 178.833 433.436 179.5C427.836 178.3 430.436 175.667 431.436 174C439.936 172 451.436 182.5 447.436 180.5Z" fill="#FFD7B7" fill-opacity="0.8"/>
</g>
<path d="M236.936 74C237.436 76.1667 239.236 81.5 242.436 85.5" stroke="black" stroke-linecap="round"/>
<path d="M239.936 42C240.436 44.1667 242.236 49.5 245.436 53.5" stroke="black" stroke-linecap="round"/>
<path d="M243.317 97C238.15 101.5 224.217 108.8 209.817 102C213.817 109 226.617 122.4 245.817 120" stroke="black" stroke-linecap="round"/>
<path d="M429.817 127C433.317 131.833 442.117 141.9 449.317 143.5C448.817 143.5 435.317 144 421.817 135" stroke="black"/>
<path d="M365.817 121C365.984 126.333 368.917 139.4 379.317 149" stroke="black"/>
<path d="M402.817 145.5C405.484 152.5 415.917 164.9 436.317 158.5C435.317 158 430.317 174.5 406.817 165.5" stroke="black"/>
<path d="M380.317 204.5C379.484 208.5 376.917 217.4 373.317 221C376.65 219.167 384.017 214.4 386.817 210" stroke="black"/>
<path d="M386.817 192C389.15 195 398.617 201.2 417.817 202C417.317 201.5 400.317 194.5 397.817 177.5" stroke="black"/>
<path d="M367.817 130.5C359.65 148.667 353.117 190.6 392.317 213C392.043 213 384.268 202.948 379.017 189.5M376.817 153C372.069 164.984 374.682 178.399 379.017 189.5M385.817 165.5C383.117 170.833 377.977 183.1 379.017 189.5" stroke="black"/>
<path d="M292.317 152.5C291.317 158.833 291.617 173.8 300.817 183C299.817 174.833 301.017 155.2 313.817 142" stroke="black"/>
<path d="M283.317 45C281.817 53.5 284.817 71.6 308.817 76C301.65 80 282.617 84.1 263.817 68.5C264.317 74 265.317 85.5 279.817 90C279.317 89.5 270.817 89 268.317 88C265.817 87 287.817 108 309.817 102" stroke="black"/>
<path d="M355.817 77C354.484 83.6667 354.417 98.5 364.817 104.5C364.317 104.5 345.817 111 336.817 84" stroke="black"/>
<path d="M391.317 89.5C388.484 97.5 384.917 116.8 393.317 130C391.484 122 390.317 103.8 400.317 95" stroke="black"/>
<path d="M345.5 155.004C348.834 159.504 360 169.004 378 171.004C370.834 172.671 354.3 172.904 345.5 160.504L347.936 169C342.368 163.869 334.655 151.944 334.634 137.161C328.494 139.845 316.137 148.283 313 162.004C314.496 154.36 320.962 137.802 334.878 132.55C335.579 126.043 337.847 119.092 342.436 112C342.936 114.5 334.436 152 345.5 155.004Z" fill="#AB2D17"/>
<path d="M300.5 181.004C293.936 159 306.603 146.833 313.436 142.5C308.034 148.088 305.056 153.416 302.936 160.504C303.837 157.717 311.024 151.5 314.5 149.5L313.436 155C309.836 156.6 304.024 162.833 301.436 166C300.049 172.241 300.43 177.406 300.5 181.004Z" fill="#AB2D17"/>
<path d="M292.436 137.5C287.936 140 277.636 148.5 280.436 164.5C281.103 157.333 284.936 142.5 292.436 137.5Z" fill="#AB2D17"/>
<path d="M417.936 201.5C422.816 204.265 431.124 207.919 437.47 206.606C437.785 206.483 437.936 206.427 437.936 206.5C437.782 206.539 437.627 206.574 437.47 206.606C435.642 207.325 428.292 210.325 412.936 203.5C412.536 203.1 412.936 202 417.936 201.5Z" fill="#AB2D17"/>
<path d="M448.936 181C434.536 176.6 424.27 184.333 420.936 188.5L423.936 193.5C428.436 182 443.436 180 448.936 181Z" fill="#AB2D17"/>
<path d="M430.936 174C439.27 171.167 456.436 163 461.436 155.5C458.603 162.833 446.936 177 430.936 174Z" fill="#AB2D17"/>
<path d="M432.436 160.5C414.836 168.1 403.603 160 399.936 155.5C399.936 160 405.936 165 406.436 165C424.936 172 432.936 164.167 435.436 158.5L432.436 160.5Z" fill="#AB2D17"/>
<path d="M391.936 112C389.536 107.2 390.27 95.3333 390.936 90C386.436 110 389.436 122.667 392.436 127L391.936 112Z" fill="#AB2D17"/>
<path d="M413.936 76.5L408.936 91C418.136 83 418.77 73 417.936 69L413.936 76.5Z" fill="#AB2D17"/>
<path d="M336.436 84.5C338.936 89.3333 347.936 100.1 363.936 104.5C357.603 106.667 344.936 104.5 336.436 84.5Z" fill="#AB2D17"/>
<path d="M281.936 90.5C276.336 86.9 267.436 75.1667 264.436 69.5C265.436 83.5 273.77 87.1667 278.436 89H269.436C284.936 102.5 301.603 104 308.936 102C294.936 101.2 278.77 93.3333 272.436 89.5C274.77 89.6667 281.936 90.9 281.936 90.5Z" fill="#AB2D17"/>
<path d="M252.436 110.5C256.762 112.497 268.694 115.788 281.867 113.015C281.912 112.97 281.936 112.963 281.936 113C281.913 113.005 281.89 113.01 281.867 113.015C281.424 113.455 278.949 117.579 277.436 120C271.77 120.333 260.936 119 252.436 110.5Z" fill="#AB2D17"/>
<path d="M248.436 131.5C257.603 132.667 278.336 132.8 287.936 124C287.536 124.4 285.103 128.5 283.936 130.5C279.688 133.686 268.436 138 260.555 137C241.055 154.5 241.685 163.167 238.436 174C237.236 154.4 249.436 140 256.376 135.5C253.725 134.663 251.054 133.37 248.436 131.5Z" fill="#AB2D17"/>
<path d="M209.436 102C209.9 102.464 210.433 102.957 211.032 103.468C213.301 104.135 215.624 104.67 217.936 105C216.68 105.205 215.17 105.356 213.509 105.404C221.304 111.009 235.639 117.282 252.436 113L245.936 119.5C238.931 120.123 225.818 120.455 212.303 105.42C204.593 105.402 194.382 103.084 190.936 94C194.303 96.3308 201.975 100.714 210.483 103.304C210.134 102.88 209.785 102.445 209.436 102Z" fill="#AB2D17"/>
<path d="M224.936 139.5C217.336 143.1 194.436 137 194.436 137C194.436 137 196.936 143 213.936 148.5C213.936 159.7 206.936 168 197.936 170C201.936 173.5 209.555 173.667 214.055 174C214.055 174 213.055 178.5 210.555 181.5C208.055 184.5 204.555 187 201.436 188.5C207.936 190 212.936 189.5 213.436 189.5C213.182 189.51 214.936 184 214.936 184C214.936 184 215.936 181 218.436 169.5C215.936 160.5 219.936 149 219.936 149L224.936 139.5Z" fill="#AB2D17"/>
<path d="M231.364 188.185C225.533 162.371 237.465 146.48 244.436 141.5C232.798 158.861 231.114 185.03 231.364 188.185C231.388 188.29 231.412 188.395 231.436 188.5C231.405 188.5 231.381 188.392 231.364 188.185Z" fill="#AB2D17"/>
<path d="M232.936 82.5C220.536 84.1 209.103 79.5 204.936 77C208.936 81 210.436 81.5 217.936 85C225.436 88.5 231.936 84.8333 232.936 82.5Z" fill="#AB2D17"/>
<path d="M381.317 177C386.984 183.667 399.936 195.5 415.817 201.5C415.319 201.5 393.15 202.49 379.513 184.264C379.492 184.383 379.472 184.5 379.451 184.617C380.259 187.031 384.414 196.048 393.725 202.869C393.725 202.869 395.555 204.113 398.891 206.094C406.535 210.106 416.767 212.373 430.177 210.025C430.275 209.957 430.317 209.944 430.317 210C430.27 210.008 430.224 210.016 430.177 210.025C429.399 210.565 425.084 214.611 410.317 215.5C406.436 219 403.117 227.5 408.317 235.5C407.817 235.5 399.936 233.5 395.317 228C393.937 227.5 382.954 239.98 391.914 249.477C391.929 249.479 391.936 249.487 391.936 249.5C391.929 249.492 391.922 249.485 391.914 249.477C391.367 249.377 380.613 256.28 368.436 248C368.436 248 368.364 248.045 368.219 248.125C366.931 249.32 360.554 257.726 366.317 264.5C363.436 262.5 358.936 262.5 352.936 256C352.536 255.6 350.936 258 348.936 259C348.142 259.397 347.765 259.479 347.599 259.433C347.723 265.262 343.462 270.5 343.462 270.5C343.462 270.5 342.436 267 340.936 266C339.436 265.5 342.936 265 345.936 260.5C345.936 260.5 346.543 260.004 347.5 259.176C347.529 259.082 347.582 259 347.582 259C347.583 259.033 347.585 259.067 347.587 259.1C349.524 257.421 352.805 254.461 355.436 251.5C363.231 250.634 367.275 248.643 368.219 248.125C368.357 247.997 368.436 247.952 368.436 248C368.436 248 374.936 245 381.936 237C391.436 227.5 397.436 218 400.436 207C399.89 206.683 399.375 206.381 398.891 206.094C397.016 205.109 395.297 204.02 393.725 202.869L388.36 208.646C388.672 210.003 388.252 210.322 387.263 209.828L384.317 213L375.436 219L380.936 205.5C384.071 207.851 386.527 207.284 388.14 207.873C387.659 206.412 386.625 204.167 384.936 201C381.736 195 379.603 189.333 378.936 187.5C379.088 186.74 379.257 185.732 379.451 184.617C379.318 184.219 379.276 184 379.317 184C379.382 184.089 379.448 184.177 379.513 184.264C379.951 181.781 380.52 178.861 381.317 177Z" fill="#AB2D17"/>
<path d="M368.583 144C372.583 147.2 377.249 148.667 379.083 149C374.283 145 369.103 136.333 367.436 132C362.936 142.5 361.436 161.5 361.936 163.5C363.936 199 391.583 212.5 392.083 212.5C363.583 189.5 368.083 144 368.583 144Z" fill="#AB2D17"/>
<path d="M301.817 166.5C303.317 163.667 307.717 157.5 313.317 155.5C313.984 150.5 317.317 138.9 325.317 132.5C324.817 132.5 313.817 140.5 312.317 164.5C314.484 157.167 321.817 141.4 333.817 137C334.15 130.667 336.317 116.9 342.317 112.5C342.317 112 320.317 139 349.317 171.5C348.817 171.5 338.317 146 348.317 131.5C344.15 139 339.217 156.9 352.817 168.5C356.15 170.5 365.917 173.9 378.317 171.5C371.817 169.5 358.117 162.8 355.317 152" stroke="black"/>
<path d="M283.317 98.5C280.317 103.667 270.017 113.3 252.817 110.5C252.317 110.5 259.817 121 277.317 120.5C276.817 120.5 267.317 135 248.317 131.5C248.317 131 259.817 144 284.817 130.5C286.984 126.833 292.017 119.2 294.817 118C286.317 125.5 271.717 145.8 281.317 167C280.817 167 282.317 144.5 292.317 138C291.817 137.5 286.817 151.5 292.317 163C291.65 151.167 294.017 125.6 308.817 118" stroke="black" stroke-linecap="round"/>
<path d="M212.817 148.5C214.15 148.833 217.517 149.3 220.317 148.5C221.65 145.5 225.417 138.5 229.817 134.5C229.317 134.5 213.317 149 219.317 172C219.15 168.667 219.917 160.9 224.317 156.5C223.484 163 223.917 179 232.317 191C230.65 184.5 230.917 165.4 245.317 141C240.984 147.167 233.617 162.5 238.817 174.5C239.484 166.667 245.517 147.7 262.317 136.5" stroke="black" stroke-linecap="round"/>
<path d="M101.936 410C103.603 418.667 108.017 437.4 110.817 443" stroke="black" stroke-linecap="round"/>
<path d="M129.317 443C125.717 440.6 116.984 422.833 113.317 414.5C114.517 421.3 121.484 436.5 124.817 443H129.317Z" fill="black"/>
<path d="M133.817 391.5C125.817 388.3 108.817 374.167 101.317 367.5C101.15 367.5 100.717 368.6 100.317 373C103.917 378.6 121.484 391 129.817 396.5C133.317 399 138.817 397 138.817 397.5C139.317 406.5 144.317 431.167 147.317 442.5H154.317C149.917 436.5 146.15 409 144.817 396C158.817 393.2 174.984 381.5 181.317 376L180.817 369.5C180.817 369.5 180.621 369.745 180.317 370C163.117 384.4 142.15 390.333 133.817 391.5Z" fill="white"/>
<path d="M73.3171 330.5C79.3171 337.5 94.0171 352.1 104.817 354.5C105.762 348.041 107.244 334.405 106.052 328.876C105.853 328.304 105.764 328 105.817 328C105.905 328.263 105.983 328.556 106.052 328.876C107.705 333.644 116.888 357.018 113.317 378C113.15 395.667 115.317 433.3 125.317 442.5H101.817C102.15 436.167 103.017 422.6 103.817 419C100.436 405.5 98.4171 377.203 100.817 367C100.317 367 77.3171 339 73.3171 330.5Z" fill="black" fill-opacity="0.3"/>
<path d="M389.817 443L393.317 411.5C389.317 429.1 381.484 440 377.817 443H389.817Z" fill="black" fill-opacity="0.3"/>
<path d="M389.317 384C383.317 386.8 384.817 378.833 386.317 374.5C388.717 370.1 388.317 362 387.817 358.5L389.817 362.5L390.817 371C390.484 374.167 389.717 381.2 389.317 384Z" fill="black" fill-opacity="0.3"/>
<path d="M326.317 185C327.984 183.333 333.817 180.3 343.817 181.5" stroke="black" stroke-linecap="round"/>
<path d="M270.817 170.087C272.801 170.062 277.41 171.521 279.98 177.563" stroke="black" stroke-linecap="round"/>
<path d="M247.317 175C252.984 171 268.417 168.7 284.817 191.5C284.317 191 260.317 173 247.317 175Z" fill="#030000"/>
<path d="M321.317 201C330.15 195.667 350.817 187.9 362.817 199.5C353.15 197.5 331.317 195 321.317 201Z" fill="#030000"/>
<path d="M298.317 223L287.817 223.5L292.317 230.5L300.817 231.5L304.817 228L298.317 223Z" fill="url(#paint1_linear)"/>
<path d="M298.817 230L302.817 228" stroke="black" stroke-linecap="round"/>
<path d="M290.317 224.5L292.317 227.5" stroke="black" stroke-linecap="round"/>
<path d="M300.317 206L299.317 213.5" stroke="black" stroke-linecap="round"/>
<path d="M302.317 209C302.317 209.8 301.65 212.333 301.317 213.5" stroke="black" stroke-linecap="round"/>
<path d="M306.317 203.5L303.317 214" stroke="black" stroke-linecap="round"/>
<path d="M360.317 206.8C360.483 206.8 360.617 206.666 360.617 206.5C360.617 206.334 360.483 206.2 360.317 206.2V206.8ZM356.817 206.8H360.317V206.2H356.817V206.8Z" fill="black"/>
<path d="M244.817 183.3C244.651 183.3 244.517 183.166 244.517 183C244.517 182.834 244.651 182.7 244.817 182.7V183.3ZM248.317 183.3H244.817V182.7H248.317V183.3Z" fill="black"/>
<path d="M359.722 209.285C359.879 209.337 360.049 209.252 360.102 209.095C360.154 208.938 360.069 208.768 359.912 208.715L359.722 209.285ZM356.722 208.285L359.722 209.285L359.912 208.715L356.912 207.715L356.722 208.285Z" fill="black"/>
<path d="M245.412 185.785C245.255 185.837 245.085 185.752 245.032 185.595C244.98 185.438 245.065 185.268 245.222 185.215L245.412 185.785ZM248.412 184.785L245.412 185.785L245.222 185.215L248.222 184.215L248.412 184.785Z" fill="black"/>
<path d="M217.817 178.5C220.317 175 225.117 171.7 224.317 186.5V194C225.984 196.333 228.917 202.2 227.317 207C223.65 205.833 216.617 201.6 217.817 194" stroke="black"/>
<path d="M383.317 222C384.15 221.667 385.917 220.4 386.317 218C386.717 215.6 387.15 213.333 387.317 212.5C392.984 207.167 402.217 200.4 393.817 216M367.817 237C371.15 238.667 380.317 238 390.317 222" stroke="black" stroke-linecap="round"/>
<path d="M374.317 229.5L378.817 225" stroke="black" stroke-linecap="round"/>
<path d="M197.317 402C192.117 402.4 189.15 408.167 188.317 411C188.717 415.8 193.15 424.333 195.317 428C198.917 426.8 202.817 422.167 204.317 420C212.717 406.8 203.15 402.5 197.317 402Z" fill="white"/>
<path d="M183.817 416.5C186.217 415.3 186.817 412 186.817 410.5L187.317 409.5L191.317 422C191.317 422.167 190.717 423 188.317 425C185.117 427 182.65 423.833 181.817 422C180.617 420.4 182.65 417.667 183.817 416.5Z" fill="white"/>
<ellipse cx="193.317" cy="396" rx="2.5" ry="5" fill="white"/>
<ellipse cx="200.193" cy="397.058" rx="2.5" ry="3.5" transform="rotate(16.182 200.193 397.058)" fill="white"/>
<ellipse cx="205.015" cy="399.42" rx="1.89981" ry="2.84568" transform="rotate(35.4618 205.015 399.42)" fill="white"/>
<ellipse cx="209.015" cy="402.42" rx="1.89981" ry="2.84568" transform="rotate(46.6868 209.015 402.42)" fill="white"/>
<ellipse cx="211.227" cy="407.04" rx="1.89981" ry="2.84568" transform="rotate(61.0432 211.227 407.04)" fill="white"/>
<path d="M188.317 432C188.15 430.833 187.217 428.8 184.817 430C184.15 430.5 183.417 432 185.817 434C186.317 434.833 186.717 436.6 184.317 437C183.317 437 181.417 436.6 181.817 435" stroke="white" stroke-width="1.6" stroke-linecap="round"/>
<path d="M181.568 428.281C181.723 428.695 182.184 428.904 182.598 428.749C183.012 428.594 183.221 428.133 183.066 427.719L181.568 428.281ZM176.817 427.5L176.29 426.898L176.233 426.948L176.186 427.009L176.817 427.5ZM178.674 433.787C179.109 433.866 179.525 433.578 179.604 433.143C179.683 432.708 179.395 432.292 178.96 432.213L178.674 433.787ZM183.066 427.719C182.768 426.923 182.057 425.855 180.836 425.442C179.551 425.008 178.009 425.394 176.29 426.898L177.344 428.102C178.825 426.806 179.783 426.775 180.323 426.958C180.927 427.162 181.367 427.744 181.568 428.281L183.066 427.719ZM176.186 427.009C175.554 427.82 174.811 429.197 174.933 430.583C174.997 431.312 175.303 432.027 175.949 432.609C176.58 433.176 177.483 433.571 178.674 433.787L178.96 432.213C177.951 432.029 177.358 431.724 177.019 431.419C176.696 431.129 176.558 430.8 176.526 430.442C176.457 429.653 176.913 428.68 177.449 427.991L176.186 427.009Z" fill="white"/>
<path d="M176.412 423.535C176.707 423.207 176.681 422.701 176.352 422.405C176.024 422.11 175.518 422.136 175.222 422.465L176.412 423.535ZM170.722 427.465C170.427 427.793 170.453 428.299 170.782 428.595C171.11 428.89 171.616 428.864 171.912 428.535L170.722 427.465ZM175.222 422.465L170.722 427.465L171.912 428.535L176.412 423.535L175.222 422.465Z" fill="white"/>
<path d="M179.383 420.566C179.695 420.253 179.695 419.747 179.383 419.434C179.07 419.122 178.564 419.122 178.251 419.434L179.383 420.566ZM177.251 420.434C176.939 420.747 176.939 421.253 177.251 421.566C177.564 421.878 178.07 421.878 178.383 421.566L177.251 420.434ZM178.251 419.434L177.251 420.434L178.383 421.566L179.383 420.566L178.251 419.434Z" fill="white"/>
<path d="M232.936 289.5C235.436 289.5 236.936 289 243.934 290C243.936 289.984 243.936 289.984 243.936 290C243.936 290 243.935 290 243.934 290C243.895 290.47 243.12 305.111 233.436 308.5C233.936 303 231.936 292.5 232.936 289.5Z" fill="#D2976B"/>
<path d="M321.936 327C318.936 323 317.436 321.5 315.936 320.5C312.336 325.3 312.603 333.167 312.936 337.5C315.336 335.5 319.936 330.167 321.936 327Z" fill="#D2976B"/>
</g>
<defs>
<filter id="filter0_d" x="0.595886" y="0.926331" width="471.007" height="450.574" filterUnits="userSpaceOnUse" color-interpolation-filters="sRGB">
<feFlood flood-opacity="0" result="BackgroundImageFix"/>
<feColorMatrix in="SourceAlpha" type="matrix" values="0 0 0 0 0 0 0 0 0 0 0 0 0 0 0 0 0 0 127 0" result="hardAlpha"/>
<feOffset dy="4"/>
<feGaussianBlur stdDeviation="2"/>
<feComposite in2="hardAlpha" operator="out"/>
<feColorMatrix type="matrix" values="0 0 0 0 0 0 0 0 0 0 0 0 0 0 0 0 0 0 0.25 0"/>
<feBlend mode="normal" in2="BackgroundImageFix" result="effect1_dropShadow"/>
<feBlend mode="normal" in="SourceGraphic" in2="effect1_dropShadow" result="shape"/>
</filter>
<filter id="filter1_f" x="186.935" y="64.5" width="252.512" height="152" filterUnits="userSpaceOnUse" color-interpolation-filters="sRGB">
<feFlood flood-opacity="0" result="BackgroundImageFix"/>
<feBlend mode="normal" in="SourceGraphic" in2="BackgroundImageFix" result="shape"/>
<feGaussianBlur stdDeviation="2" result="effect1_foregroundBlur"/>
</filter>
<filter id="filter2_f" x="238.436" y="1" width="230" height="207" filterUnits="userSpaceOnUse" color-interpolation-filters="sRGB">
<feFlood flood-opacity="0" result="BackgroundImageFix"/>
<feBlend mode="normal" in="SourceGraphic" in2="BackgroundImageFix" result="shape"/>
<feGaussianBlur stdDeviation="1" result="effect1_foregroundBlur"/>
</filter>
<linearGradient id="paint0_linear" x1="328.548" y1="2" x2="328.548" y2="271.5" gradientUnits="userSpaceOnUse">
<stop stop-color="#F97F31"/>
<stop offset="1" stop-color="#E25F32"/>
</linearGradient>
<linearGradient id="paint1_linear" x1="293.317" y1="230.5" x2="298.317" y2="223.5" gradientUnits="userSpaceOnUse">
<stop stop-color="#E0A179"/>
<stop offset="1" stop-color="#E0A179" stop-opacity="0"/>
</linearGradient>
</defs>
</svg>
